<?xml version="1.0" encoding="UTF-8"?>
<!--Generator: Apple Native CoreSVG 175.5-->
<!DOCTYPE svg
PUBLIC "-//W3C//DTD SVG 1.1//EN"
       "http://www.w3.org/Graphics/SVG/1.1/DTD/svg11.dtd">
<svg version="1.1" xmlns="http://www.w3.org/2000/svg" xmlns:xlink="http://www.w3.org/1999/xlink" width="3300" height="2200">
 <!--glyph: "uni100582.medium", point size: 100.0, font version: "18.0d10e1", template writer version: "90"-->
 <g id="Notes">
  <rect height="2200" id="artboard" style="fill:white;opacity:1" width="3300" x="0" y="0"/>
  <line style="fill:none;stroke:black;opacity:1;stroke-width:0.5;" x1="263" x2="3036" y1="292" y2="292"/>
  <text style="stroke:none;fill:black;font-family:sans-serif;font-size:13;font-weight:bold;" transform="matrix(1 0 0 1 263 322)">Weight/Scale Variations</text>
  <text style="stroke:none;fill:black;font-family:sans-serif;font-size:13;text-anchor:middle;" transform="matrix(1 0 0 1 559.711 322)">Ultralight</text>
  <text style="stroke:none;fill:black;font-family:sans-serif;font-size:13;text-anchor:middle;" transform="matrix(1 0 0 1 856.422 322)">Thin</text>
  <text style="stroke:none;fill:black;font-family:sans-serif;font-size:13;text-anchor:middle;" transform="matrix(1 0 0 1 1153.13 322)">Light</text>
  <text style="stroke:none;fill:black;font-family:sans-serif;font-size:13;text-anchor:middle;" transform="matrix(1 0 0 1 1449.84 322)">Regular</text>
  <text style="stroke:none;fill:black;font-family:sans-serif;font-size:13;text-anchor:middle;" transform="matrix(1 0 0 1 1746.56 322)">Medium</text>
  <text style="stroke:none;fill:black;font-family:sans-serif;font-size:13;text-anchor:middle;" transform="matrix(1 0 0 1 2043.27 322)">Semibold</text>
  <text style="stroke:none;fill:black;font-family:sans-serif;font-size:13;text-anchor:middle;" transform="matrix(1 0 0 1 2339.98 322)">Bold</text>
  <text style="stroke:none;fill:black;font-family:sans-serif;font-size:13;text-anchor:middle;" transform="matrix(1 0 0 1 2636.69 322)">Heavy</text>
  <text style="stroke:none;fill:black;font-family:sans-serif;font-size:13;text-anchor:middle;" transform="matrix(1 0 0 1 2933.4 322)">Black</text>
  <line style="fill:none;stroke:black;opacity:1;stroke-width:0.5;" x1="263" x2="3036" y1="1903" y2="1903"/>
  <g transform="matrix(1 0 0 1 263 1933)">
   <path d="M9.24805 0.830078C13.5547 0.830078 17.1387-2.74414 17.1387-7.05078C17.1387-11.3574 13.5449-14.9316 9.23828-14.9316C4.94141-14.9316 1.36719-11.3574 1.36719-7.05078C1.36719-2.74414 4.95117 0.830078 9.24805 0.830078ZM9.24805-0.654297C5.70312-0.654297 2.87109-3.49609 2.87109-7.05078C2.87109-10.6055 5.69336-13.4473 9.23828-13.4473C12.793-13.4473 15.6445-10.6055 15.6445-7.05078C15.6445-3.49609 12.8027-0.654297 9.24805-0.654297ZM5.6543-7.05078C5.6543-6.62109 5.95703-6.32812 6.40625-6.32812L8.50586-6.32812L8.50586-4.20898C8.50586-3.76953 8.79883-3.4668 9.22852-3.4668C9.67773-3.4668 9.9707-3.76953 9.9707-4.20898L9.9707-6.32812L12.0898-6.32812C12.5293-6.32812 12.832-6.62109 12.832-7.05078C12.832-7.49023 12.5293-7.79297 12.0898-7.79297L9.9707-7.79297L9.9707-9.90234C9.9707-10.3516 9.67773-10.6543 9.22852-10.6543C8.79883-10.6543 8.50586-10.3516 8.50586-9.90234L8.50586-7.79297L6.40625-7.79297C5.95703-7.79297 5.6543-7.49023 5.6543-7.05078Z"/>
  </g>
  <g transform="matrix(1 0 0 1 281.867 1933)">
   <path d="M11.709 2.91016C17.1582 2.91016 21.6699-1.61133 21.6699-7.05078C21.6699-12.5 17.1484-17.0117 11.6992-17.0117C6.25977-17.0117 1.74805-12.5 1.74805-7.05078C1.74805-1.61133 6.26953 2.91016 11.709 2.91016ZM11.709 1.25C7.09961 1.25 3.41797-2.44141 3.41797-7.05078C3.41797-11.6602 7.08984-15.3516 11.6992-15.3516C16.3086-15.3516 20.0098-11.6602 20.0098-7.05078C20.0098-2.44141 16.3184 1.25 11.709 1.25ZM7.17773-7.05078C7.17773-6.57227 7.50977-6.25 8.00781-6.25L10.8789-6.25L10.8789-3.36914C10.8789-2.88086 11.2109-2.53906 11.6895-2.53906C12.1777-2.53906 12.5195-2.87109 12.5195-3.36914L12.5195-6.25L15.4004-6.25C15.8887-6.25 16.2305-6.57227 16.2305-7.05078C16.2305-7.53906 15.8887-7.88086 15.4004-7.88086L12.5195-7.88086L12.5195-10.752C12.5195-11.25 12.1777-11.5918 11.6895-11.5918C11.2109-11.5918 10.8789-11.25 10.8789-10.752L10.8789-7.88086L8.00781-7.88086C7.50977-7.88086 7.17773-7.53906 7.17773-7.05078Z"/>
  </g>
  <g transform="matrix(1 0 0 1 305.646 1933)">
   <path d="M14.9707 5.66406C21.9336 5.66406 27.6953-0.0976562 27.6953-7.05078C27.6953-14.0137 21.9238-19.7754 14.9609-19.7754C8.00781-19.7754 2.25586-14.0137 2.25586-7.05078C2.25586-0.0976562 8.01758 5.66406 14.9707 5.66406ZM14.9707 3.84766C8.93555 3.84766 4.08203-1.01562 4.08203-7.05078C4.08203-13.0957 8.92578-17.9492 14.9609-17.9492C21.0059-17.9492 25.8691-13.0957 25.8691-7.05078C25.8691-1.01562 21.0156 3.84766 14.9707 3.84766ZM9.19922-7.05078C9.19922-6.5332 9.57031-6.17188 10.1172-6.17188L14.0625-6.17188L14.0625-2.2168C14.0625-1.67969 14.4336-1.29883 14.9512-1.29883C15.4883-1.29883 15.8594-1.66992 15.8594-2.2168L15.8594-6.17188L19.8145-6.17188C20.3516-6.17188 20.7324-6.5332 20.7324-7.05078C20.7324-7.59766 20.3613-7.96875 19.8145-7.96875L15.8594-7.96875L15.8594-11.9141C15.8594-12.4609 15.4883-12.8418 14.9512-12.8418C14.4336-12.8418 14.0625-12.4609 14.0625-11.9141L14.0625-7.96875L10.1172-7.96875C9.57031-7.96875 9.19922-7.59766 9.19922-7.05078Z"/>
  </g>
  <text style="stroke:none;fill:black;font-family:sans-serif;font-size:13;font-weight:bold;" transform="matrix(1 0 0 1 263 1953)">Design Variations</text>
  <text style="stroke:none;fill:black;font-family:sans-serif;font-size:13;" transform="matrix(1 0 0 1 263 1971)">Symbols are supported in up to nine weights and three scales.</text>
  <text style="stroke:none;fill:black;font-family:sans-serif;font-size:13;" transform="matrix(1 0 0 1 263 1989)">For optimal layout with text and other symbols, vertically align</text>
  <text style="stroke:none;fill:black;font-family:sans-serif;font-size:13;" transform="matrix(1 0 0 1 263 2007)">symbols with the adjacent text.</text>
  <line style="fill:none;stroke:#00AEEF;stroke-width:0.5;opacity:1.0;" x1="776" x2="776" y1="1919" y2="1933"/>
  <g transform="matrix(1 0 0 1 776 1933)">
   <path d="M3.31055 0.15625C3.82812 0.15625 4.08203-0.0390625 4.26758-0.585938L5.52734-4.0332L11.2891-4.0332L12.5488-0.585938C12.7344-0.0390625 12.9883 0.15625 13.4961 0.15625C14.0137 0.15625 14.3457-0.15625 14.3457-0.644531C14.3457-0.810547 14.3164-0.966797 14.2383-1.17188L9.6582-13.3691C9.43359-13.9648 9.0332-14.2676 8.4082-14.2676C7.80273-14.2676 7.39258-13.9746 7.17773-13.3789L2.59766-1.16211C2.51953-0.957031 2.49023-0.800781 2.49023-0.634766C2.49023-0.146484 2.80273 0.15625 3.31055 0.15625ZM6.00586-5.51758L8.37891-12.0898L8.42773-12.0898L10.8008-5.51758Z"/>
  </g>
  <line style="fill:none;stroke:#00AEEF;stroke-width:0.5;opacity:1.0;" x1="793.197" x2="793.197" y1="1919" y2="1933"/>
  <text style="stroke:none;fill:black;font-family:sans-serif;font-size:13;font-weight:bold;" transform="matrix(1 0 0 1 776 1953)">Margins</text>
  <text style="stroke:none;fill:black;font-family:sans-serif;font-size:13;" transform="matrix(1 0 0 1 776 1971)">Leading and trailing margins on the left and right side of each symbol</text>
  <text style="stroke:none;fill:black;font-family:sans-serif;font-size:13;" transform="matrix(1 0 0 1 776 1989)">can be adjusted by modifying the x-location of the margin guidelines.</text>
  <text style="stroke:none;fill:black;font-family:sans-serif;font-size:13;" transform="matrix(1 0 0 1 776 2007)">Modifications are automatically applied proportionally to all</text>
  <text style="stroke:none;fill:black;font-family:sans-serif;font-size:13;" transform="matrix(1 0 0 1 776 2025)">scales and weights.</text>
  <g transform="matrix(1 0 0 1 1289 1933)">
   <path d="M2.8418 1.86523L4.54102 3.57422C5.40039 4.44336 6.38672 4.38477 7.31445 3.35938L18.0078-8.42773L17.041-9.4043L6.42578 2.27539C6.07422 2.67578 5.74219 2.77344 5.27344 2.30469L4.10156 1.14258C3.63281 0.683594 3.74023 0.341797 4.14062-0.0195312L15.6152-10.8203L14.6387-11.7871L3.04688-0.898438C2.06055 0.0195312 1.98242 0.996094 2.8418 1.86523ZM9.25781-16.3281C8.83789-15.918 8.80859-15.3418 9.04297-14.9512C9.27734-14.5898 9.73633-14.3555 10.3809-14.5215C11.8457-14.8633 13.3691-14.9219 14.7949-13.9844L14.209-12.5293C13.8672-11.6992 14.043-11.1133 14.5801-10.5664L16.875-8.25195C17.3633-7.76367 17.7734-7.74414 18.3398-7.8418L19.4043-8.03711L20.0684-7.36328L20.0293-6.80664C19.9902-6.30859 20.1172-5.92773 20.6055-5.44922L21.3672-4.70703C21.8457-4.22852 22.4609-4.19922 22.9297-4.66797L25.8398-7.58789C26.3086-8.05664 26.2891-8.65234 25.8105-9.13086L25.0391-9.89258C24.5605-10.3711 24.1895-10.5273 23.7109-10.4883L23.1348-10.4395L22.4902-11.0742L22.7344-12.1973C22.8613-12.7637 22.7051-13.2031 22.1191-13.7891L19.9219-15.9766C16.582-19.2969 12.1484-19.2188 9.25781-16.3281ZM10.752-15.957C13.1836-17.7344 16.4746-17.4316 18.7012-15.2051L21.1328-12.793C21.3672-12.5586 21.4062-12.373 21.3379-12.0312L21.0156-10.5469L22.5195-9.0625L23.5059-9.12109C23.7598-9.13086 23.8379-9.11133 24.0332-8.91602L24.6094-8.33984L22.168-5.89844L21.5918-6.47461C21.3965-6.66992 21.3672-6.74805 21.377-7.01172L21.4453-7.98828L19.9512-9.47266L18.4277-9.21875C18.1055-9.15039 17.959-9.17969 17.7148-9.41406L15.7129-11.416C15.459-11.6504 15.4297-11.8164 15.5859-12.1875L16.4648-14.2773C14.9023-15.7324 12.8711-16.3574 10.8398-15.7617C10.6836-15.7227 10.625-15.8496 10.752-15.957Z"/>
  </g>
  <text style="stroke:none;fill:black;font-family:sans-serif;font-size:13;font-weight:bold;" transform="matrix(1 0 0 1 1289 1953)">Exporting</text>
  <text style="stroke:none;fill:black;font-family:sans-serif;font-size:13;" transform="matrix(1 0 0 1 1289 1971)">Symbols should be outlined when exporting to ensure the</text>
  <text style="stroke:none;fill:black;font-family:sans-serif;font-size:13;" transform="matrix(1 0 0 1 1289 1989)">design is preserved when submitting to Xcode.</text>
  <text id="template-version" style="stroke:none;fill:black;font-family:sans-serif;font-size:13;text-anchor:end;" transform="matrix(1 0 0 1 3036 1933)">Template v.3.0</text>
  <text style="stroke:none;fill:black;font-family:sans-serif;font-size:13;text-anchor:end;" transform="matrix(1 0 0 1 3036 1951)">Requires Xcode 13 or greater</text>
  <text id="descriptive-name" style="stroke:none;fill:black;font-family:sans-serif;font-size:13;text-anchor:end;" transform="matrix(1 0 0 1 3036 1969)">Generated from qrcode</text>
  <text style="stroke:none;fill:black;font-family:sans-serif;font-size:13;text-anchor:end;" transform="matrix(1 0 0 1 3036 1987)">Typeset at 100 points</text>
  <text style="stroke:none;fill:black;font-family:sans-serif;font-size:13;" transform="matrix(1 0 0 1 263 726)">Small</text>
  <text style="stroke:none;fill:black;font-family:sans-serif;font-size:13;" transform="matrix(1 0 0 1 263 1156)">Medium</text>
  <text style="stroke:none;fill:black;font-family:sans-serif;font-size:13;" transform="matrix(1 0 0 1 263 1586)">Large</text>
 </g>
 <g id="Guides">
  <g id="H-reference" style="fill:#27AAE1;stroke:none;" transform="matrix(1 0 0 1 339 696)">
   <path d="M0.993654 0L3.63775 0L29.3281-67.1323L30.0303-67.1323L30.0303-70.459L28.1226-70.459ZM11.6885-24.4799L46.9815-24.4799L46.2315-26.7285L12.4385-26.7285ZM55.1196 0L57.7637 0L30.6382-70.459L29.4326-70.459L29.4326-67.1323Z"/>
  </g>
  <line id="Baseline-S" style="fill:none;stroke:#27AAE1;opacity:1;stroke-width:0.5;" x1="263" x2="3036" y1="696" y2="696"/>
  <line id="Capline-S" style="fill:none;stroke:#27AAE1;opacity:1;stroke-width:0.5;" x1="263" x2="3036" y1="625.541" y2="625.541"/>
  <g id="H-reference" style="fill:#27AAE1;stroke:none;" transform="matrix(1 0 0 1 339 1126)">
   <path d="M0.993654 0L3.63775 0L29.3281-67.1323L30.0303-67.1323L30.0303-70.459L28.1226-70.459ZM11.6885-24.4799L46.9815-24.4799L46.2315-26.7285L12.4385-26.7285ZM55.1196 0L57.7637 0L30.6382-70.459L29.4326-70.459L29.4326-67.1323Z"/>
  </g>
  <line id="Baseline-M" style="fill:none;stroke:#27AAE1;opacity:1;stroke-width:0.5;" x1="263" x2="3036" y1="1126" y2="1126"/>
  <line id="Capline-M" style="fill:none;stroke:#27AAE1;opacity:1;stroke-width:0.5;" x1="263" x2="3036" y1="1055.54" y2="1055.54"/>
  <g id="H-reference" style="fill:#27AAE1;stroke:none;" transform="matrix(1 0 0 1 339 1556)">
   <path d="M0.993654 0L3.63775 0L29.3281-67.1323L30.0303-67.1323L30.0303-70.459L28.1226-70.459ZM11.6885-24.4799L46.9815-24.4799L46.2315-26.7285L12.4385-26.7285ZM55.1196 0L57.7637 0L30.6382-70.459L29.4326-70.459L29.4326-67.1323Z"/>
  </g>
  <line id="Baseline-L" style="fill:none;stroke:#27AAE1;opacity:1;stroke-width:0.5;" x1="263" x2="3036" y1="1556" y2="1556"/>
  <line id="Capline-L" style="fill:none;stroke:#27AAE1;opacity:1;stroke-width:0.5;" x1="263" x2="3036" y1="1485.54" y2="1485.54"/>
  <line id="left-margin-Ultralight-S" style="fill:none;stroke:#00AEEF;stroke-width:0.5;opacity:1.0;" x1="516.35" x2="516.35" y1="600.785" y2="720.121"/>
  <line id="right-margin-Ultralight-S" style="fill:none;stroke:#00AEEF;stroke-width:0.5;opacity:1.0;" x1="603.073" x2="603.073" y1="600.785" y2="720.121"/>
  <line id="left-margin-Regular-S" style="fill:none;stroke:#00AEEF;stroke-width:0.5;opacity:1.0;" x1="1404.51" x2="1404.51" y1="600.785" y2="720.121"/>
  <line id="right-margin-Regular-S" style="fill:none;stroke:#00AEEF;stroke-width:0.5;opacity:1.0;" x1="1495.18" x2="1495.18" y1="600.785" y2="720.121"/>
  <line id="left-margin-Black-S" style="fill:none;stroke:#00AEEF;stroke-width:0.5;opacity:1.0;" x1="2885.5" x2="2885.5" y1="600.785" y2="720.121"/>
  <line id="right-margin-Black-S" style="fill:none;stroke:#00AEEF;stroke-width:0.5;opacity:1.0;" x1="2981.3" x2="2981.3" y1="600.785" y2="720.121"/>
 </g>
 <g id="Symbols">
  <g id="Black-S" transform="matrix(1 0 0 1 2885.5 696)">
   <path d="M22.5586-37.3047L33.0078-37.3047C41.7969-37.3047 45.8008-41.3086 45.8008-50.0977L45.8008-60.5469C45.8008-69.3359 41.7969-73.3398 33.0078-73.3398L22.5586-73.3398C13.7695-73.3398 9.76562-69.3359 9.76562-60.5469L9.76562-50.0977C9.76562-41.3086 13.7695-37.3047 22.5586-37.3047ZM21.3379-46.5332C19.6777-46.5332 18.9941-47.2168 18.9941-48.877L18.9941-61.7676C18.9941-63.4277 19.6777-64.1113 21.3379-64.1113L34.2285-64.1113C35.8887-64.1113 36.5723-63.4277 36.5723-61.7676L36.5723-48.877C36.5723-47.2168 35.8887-46.5332 34.2285-46.5332ZM23.6328-50.2441L31.8359-50.2441C32.5684-50.2441 32.8613-50.5371 32.8613-51.3672L32.8613-59.3262C32.8613-60.1074 32.5684-60.4004 31.8359-60.4004L23.6328-60.4004C22.9492-60.4004 22.7051-60.1074 22.7051-59.3262L22.7051-51.3672C22.7051-50.5371 22.9492-50.2441 23.6328-50.2441ZM62.793-37.3047L73.2422-37.3047C82.0312-37.3047 86.0352-41.3086 86.0352-50.0977L86.0352-60.5469C86.0352-69.3359 82.0312-73.3398 73.2422-73.3398L62.793-73.3398C54.0039-73.3398 50-69.3359 50-60.5469L50-50.0977C50-41.3086 54.0039-37.3047 62.793-37.3047ZM61.5723-46.5332C59.9121-46.5332 59.2285-47.2168 59.2285-48.877L59.2285-61.7676C59.2285-63.4277 59.9121-64.1113 61.5723-64.1113L74.4629-64.1113C76.123-64.1113 76.8066-63.4277 76.8066-61.7676L76.8066-48.877C76.8066-47.2168 76.123-46.5332 74.4629-46.5332ZM63.8672-50.2441L72.0703-50.2441C72.8027-50.2441 73.0957-50.5371 73.0957-51.3672L73.0957-59.3262C73.0957-60.1074 72.8027-60.4004 72.0703-60.4004L63.8672-60.4004C63.1836-60.4004 62.9395-60.1074 62.9395-59.3262L62.9395-51.3672C62.9395-50.5371 63.1836-50.2441 63.8672-50.2441ZM22.5586 2.92969L33.0078 2.92969C41.7969 2.92969 45.8008-1.07422 45.8008-9.86328L45.8008-20.3125C45.8008-29.1016 41.7969-33.1055 33.0078-33.1055L22.5586-33.1055C13.7695-33.1055 9.76562-29.1016 9.76562-20.3125L9.76562-9.86328C9.76562-1.07422 13.7695 2.92969 22.5586 2.92969ZM21.3379-6.29883C19.6777-6.29883 18.9941-6.98242 18.9941-8.64258L18.9941-21.5332C18.9941-23.1934 19.6777-23.877 21.3379-23.877L34.2285-23.877C35.8887-23.877 36.5723-23.1934 36.5723-21.5332L36.5723-8.64258C36.5723-6.98242 35.8887-6.29883 34.2285-6.29883ZM23.6328-10.0098L31.8359-10.0098C32.5684-10.0098 32.8613-10.3027 32.8613-11.1328L32.8613-19.0918C32.8613-19.873 32.5684-20.166 31.8359-20.166L23.6328-20.166C22.9492-20.166 22.7051-19.873 22.7051-19.0918L22.7051-11.1328C22.7051-10.3027 22.9492-10.0098 23.6328-10.0098ZM53.125-21.3867L61.3281-21.3867C62.0605-21.3867 62.3535-21.6797 62.3535-22.5098L62.3535-30.4688C62.3535-31.25 62.0605-31.543 61.3281-31.543L53.125-31.543C52.4414-31.543 52.1973-31.25 52.1973-30.4688L52.1973-22.5098C52.1973-21.6797 52.4414-21.3867 53.125-21.3867ZM74.4141-21.3867L82.6172-21.3867C83.3496-21.3867 83.6426-21.6797 83.6426-22.5098L83.6426-30.4688C83.6426-31.25 83.3496-31.543 82.6172-31.543L74.4141-31.543C73.7305-31.543 73.4863-31.25 73.4863-30.4688L73.4863-22.5098C73.4863-21.6797 73.7305-21.3867 74.4141-21.3867ZM63.8672-10.7422L72.0703-10.7422C72.8027-10.7422 73.0957-11.0352 73.0957-11.8652L73.0957-19.8242C73.0957-20.6055 72.8027-20.8984 72.0703-20.8984L63.8672-20.8984C63.1836-20.8984 62.9395-20.6055 62.9395-19.8242L62.9395-11.8652C62.9395-11.0352 63.1836-10.7422 63.8672-10.7422ZM53.125-0.0976562L61.3281-0.0976562C62.0605-0.0976562 62.3535-0.390625 62.3535-1.2207L62.3535-9.17969C62.3535-9.96094 62.0605-10.2539 61.3281-10.2539L53.125-10.2539C52.4414-10.2539 52.1973-9.96094 52.1973-9.17969L52.1973-1.2207C52.1973-0.390625 52.4414-0.0976562 53.125-0.0976562ZM74.4141-0.0976562L82.6172-0.0976562C83.3496-0.0976562 83.6426-0.390625 83.6426-1.2207L83.6426-9.17969C83.6426-9.96094 83.3496-10.2539 82.6172-10.2539L74.4141-10.2539C73.7305-10.2539 73.4863-9.96094 73.4863-9.17969L73.4863-1.2207C73.4863-0.390625 73.7305-0.0976562 74.4141-0.0976562Z"/>
  </g>
  <g id="Regular-S" transform="matrix(1 0 0 1 1404.51 696)">
   <path d="M17.5781-38.2812L34.4238-38.2812C39.6484-38.2812 42.2363-40.918 42.2363-46.2891L42.2363-62.793C42.2363-68.1641 39.6484-70.8008 34.4238-70.8008L17.5781-70.8008C12.3535-70.8008 9.76562-68.1641 9.76562-62.793L9.76562-46.2891C9.76562-40.918 12.3535-38.2812 17.5781-38.2812ZM17.627-44.4336C16.5039-44.4336 15.8691-45.0684 15.8691-46.2891L15.8691-62.8418C15.8691-64.0137 16.5039-64.6484 17.627-64.6484L34.3262-64.6484C35.498-64.6484 36.1328-64.0137 36.1328-62.8418L36.1328-46.2891C36.1328-45.0684 35.498-44.4336 34.3262-44.4336ZM22.6074-50.3906L29.3457-50.3906C29.9316-50.3906 30.1758-50.6348 30.1758-51.3184L30.1758-57.8125C30.1758-58.4473 29.9316-58.6914 29.3457-58.6914L22.6074-58.6914C22.0215-58.6914 21.8262-58.4473 21.8262-57.8125L21.8262-51.3184C21.8262-50.6348 22.0215-50.3906 22.6074-50.3906ZM56.25-38.2812L73.0957-38.2812C78.3203-38.2812 80.9082-40.918 80.9082-46.2891L80.9082-62.793C80.9082-68.1641 78.3203-70.8008 73.0957-70.8008L56.25-70.8008C51.0254-70.8008 48.4375-68.1641 48.4375-62.793L48.4375-46.2891C48.4375-40.918 51.0254-38.2812 56.25-38.2812ZM56.3477-44.4336C55.1758-44.4336 54.541-45.0684 54.541-46.2891L54.541-62.8418C54.541-64.0137 55.1758-64.6484 56.3477-64.6484L73.0469-64.6484C74.2188-64.6484 74.8047-64.0137 74.8047-62.8418L74.8047-46.2891C74.8047-45.0684 74.2188-44.4336 73.0469-44.4336ZM61.5723-50.3906L68.3105-50.3906C68.8965-50.3906 69.1406-50.6348 69.1406-51.3184L69.1406-57.8125C69.1406-58.4473 68.8965-58.6914 68.3105-58.6914L61.5723-58.6914C60.9863-58.6914 60.791-58.4473 60.791-57.8125L60.791-51.3184C60.791-50.6348 60.9863-50.3906 61.5723-50.3906ZM17.5781 0.390625L34.4238 0.390625C39.6484 0.390625 42.2363-2.24609 42.2363-7.61719L42.2363-24.1211C42.2363-29.4922 39.6484-32.0801 34.4238-32.0801L17.5781-32.0801C12.3535-32.0801 9.76562-29.4922 9.76562-24.1211L9.76562-7.61719C9.76562-2.24609 12.3535 0.390625 17.5781 0.390625ZM17.627-5.76172C16.5039-5.76172 15.8691-6.39648 15.8691-7.56836L15.8691-24.1211C15.8691-25.3418 16.5039-25.9766 17.627-25.9766L34.3262-25.9766C35.498-25.9766 36.1328-25.3418 36.1328-24.1211L36.1328-7.56836C36.1328-6.39648 35.498-5.76172 34.3262-5.76172ZM22.6074-11.7188L29.3457-11.7188C29.9316-11.7188 30.1758-11.9629 30.1758-12.6465L30.1758-19.1406C30.1758-19.7754 29.9316-20.0195 29.3457-20.0195L22.6074-20.0195C22.0215-20.0195 21.8262-19.7754 21.8262-19.1406L21.8262-12.6465C21.8262-11.9629 22.0215-11.7188 22.6074-11.7188ZM51.123-21.875L57.8613-21.875C58.4473-21.875 58.6914-22.1191 58.6914-22.8027L58.6914-29.2969C58.6914-29.9316 58.4473-30.1758 57.8613-30.1758L51.123-30.1758C50.5371-30.1758 50.3418-29.9316 50.3418-29.2969L50.3418-22.8027C50.3418-22.1191 50.5371-21.875 51.123-21.875ZM71.4355-21.875L78.1738-21.875C78.7598-21.875 79.0039-22.1191 79.0039-22.8027L79.0039-29.2969C79.0039-29.9316 78.7598-30.1758 78.1738-30.1758L71.4355-30.1758C70.8496-30.1758 70.6543-29.9316 70.6543-29.2969L70.6543-22.8027C70.6543-22.1191 70.8496-21.875 71.4355-21.875ZM61.377-11.7188L68.1152-11.7188C68.7012-11.7188 68.9453-11.9629 68.9453-12.6465L68.9453-19.1406C68.9453-19.7754 68.7012-20.0195 68.1152-20.0195L61.377-20.0195C60.791-20.0195 60.5957-19.7754 60.5957-19.1406L60.5957-12.6465C60.5957-11.9629 60.791-11.7188 61.377-11.7188ZM51.123-1.5625L57.8613-1.5625C58.4473-1.5625 58.6914-1.80664 58.6914-2.49023L58.6914-8.98438C58.6914-9.61914 58.4473-9.86328 57.8613-9.86328L51.123-9.86328C50.5371-9.86328 50.3418-9.61914 50.3418-8.98438L50.3418-2.49023C50.3418-1.80664 50.5371-1.5625 51.123-1.5625ZM71.4355-1.5625L78.1738-1.5625C78.7598-1.5625 79.0039-1.80664 79.0039-2.49023L79.0039-8.98438C79.0039-9.61914 78.7598-9.86328 78.1738-9.86328L71.4355-9.86328C70.8496-9.86328 70.6543-9.61914 70.6543-8.98438L70.6543-2.49023C70.6543-1.80664 70.8496-1.5625 71.4355-1.5625Z"/>
  </g>
  <g id="Ultralight-S" transform="matrix(1 0 0 1 516.35 696)">
   <path d="M14.8989-38.6445L34.7417-38.6445C38.0591-38.6445 39.875-40.1914 39.875-43.7915L39.875-63.6103C39.875-67.2559 38.0591-68.7573 34.7417-68.7573L14.8989-68.7573C11.5815-68.7573 9.76562-67.2559 9.76562-63.6103L9.76562-43.7915C9.76562-40.1914 11.5815-38.6445 14.8989-38.6445ZM14.9932-40.8008C12.7803-40.8008 11.9185-41.6626 11.9185-43.8823L11.9185-63.5229C11.9185-65.7392 12.7803-66.6011 14.9932-66.6011L34.644-66.6011C36.8603-66.6011 37.7222-65.7392 37.7222-63.5229L37.7222-43.8823C37.7222-41.6626 36.8603-40.8008 34.644-40.8008ZM21.9717-50.209L27.6201-50.209C28.1152-50.209 28.314-50.4077 28.314-51.0005L28.314-56.4502C28.314-56.9942 28.1152-57.1929 27.6201-57.1929L21.9717-57.1929C21.4766-57.1929 21.3267-56.9942 21.3267-56.4502L21.3267-51.0005C21.3267-50.4077 21.4766-50.209 21.9717-50.209ZM51.9815-38.6445L71.8242-38.6445C75.1416-38.6445 76.9576-40.1914 76.9576-43.7915L76.9576-63.6103C76.9576-67.2559 75.1416-68.7573 71.8242-68.7573L51.9815-68.7573C48.6641-68.7573 46.8482-67.2559 46.8482-63.6103L46.8482-43.7915C46.8482-40.1914 48.6641-38.6445 51.9815-38.6445ZM52.0791-40.8008C49.8628-40.8008 49.001-41.6626 49.001-43.8823L49.001-63.5229C49.001-65.7392 49.8628-66.6011 52.0791-66.6011L71.73-66.6011C73.9463-66.6011 74.8047-65.7392 74.8047-63.5229L74.8047-43.8823C74.8047-41.6626 73.9463-40.8008 71.73-40.8008ZM59.0747-50.209L64.7232-50.209C65.2183-50.209 65.417-50.4077 65.417-51.0005L65.417-56.4502C65.417-56.9942 65.2183-57.1929 64.7232-57.1929L59.0747-57.1929C58.5796-57.1929 58.4297-56.9942 58.4297-56.4502L58.4297-51.0005C58.4297-50.4077 58.5796-50.209 59.0747-50.209ZM14.8989-1.562L34.7417-1.562C38.0591-1.562 39.875-3.06347 39.875-6.70899L39.875-26.5278C39.875-30.1279 38.0591-31.6714 34.7417-31.6714L14.8989-31.6714C11.5815-31.6714 9.76562-30.1279 9.76562-26.5278L9.76562-6.70899C9.76562-3.06347 11.5815-1.562 14.8989-1.562ZM14.9932-3.71828C12.7803-3.71828 11.9185-4.58009 11.9185-6.79639L11.9185-26.437C11.9185-28.6567 12.7803-29.5185 14.9932-29.5185L34.644-29.5185C36.8603-29.5185 37.7222-28.6567 37.7222-26.437L37.7222-6.79639C37.7222-4.58009 36.8603-3.71828 34.644-3.71828ZM21.9717-13.1265L27.6201-13.1265C28.1152-13.1265 28.314-13.3252 28.314-13.918L28.314-19.3677C28.314-19.9116 28.1152-20.1104 27.6201-20.1104L21.9717-20.1104C21.4766-20.1104 21.3267-19.9116 21.3267-19.3677L21.3267-13.918C21.3267-13.3252 21.4766-13.1265 21.9717-13.1265ZM48.898-23.2827L54.5464-23.2827C55.0415-23.2827 55.2403-23.4814 55.2403-24.0742L55.2403-29.5239C55.2403-30.0679 55.0415-30.2666 54.5464-30.2666L48.898-30.2666C48.4028-30.2666 48.2529-30.0679 48.2529-29.5239L48.2529-24.0742C48.2529-23.4814 48.4028-23.2827 48.898-23.2827ZM69.2105-23.2827L74.8589-23.2827C75.354-23.2827 75.5528-23.4814 75.5528-24.0742L75.5528-29.5239C75.5528-30.0679 75.354-30.2666 74.8589-30.2666L69.2105-30.2666C68.7153-30.2666 68.5654-30.0679 68.5654-29.5239L68.5654-24.0742C68.5654-23.4814 68.7153-23.2827 69.2105-23.2827ZM59.1519-13.1265L64.8003-13.1265C65.2954-13.1265 65.4942-13.3252 65.4942-13.918L65.4942-19.3677C65.4942-19.9116 65.2954-20.1104 64.8003-20.1104L59.1519-20.1104C58.6568-20.1104 58.5069-19.9116 58.5069-19.3677L58.5069-13.918C58.5069-13.3252 58.6568-13.1265 59.1519-13.1265ZM48.898-2.9702L54.5464-2.9702C55.0415-2.9702 55.2403-3.16893 55.2403-3.76171L55.2403-9.21142C55.2403-9.75537 55.0415-9.9541 54.5464-9.9541L48.898-9.9541C48.4028-9.9541 48.2529-9.75537 48.2529-9.21142L48.2529-3.76171C48.2529-3.16893 48.4028-2.9702 48.898-2.9702ZM69.2105-2.9702L74.8589-2.9702C75.354-2.9702 75.5528-3.16893 75.5528-3.76171L75.5528-9.21142C75.5528-9.75537 75.354-9.9541 74.8589-9.9541L69.2105-9.9541C68.7153-9.9541 68.5654-9.75537 68.5654-9.21142L68.5654-3.76171C68.5654-3.16893 68.7153-2.9702 69.2105-2.9702Z"/>
  </g>
 </g>
</svg>
