<?xml version="1.0" encoding="UTF-8"?>
<!--Generator: Apple Native CoreSVG 175.5-->
<!DOCTYPE svg
PUBLIC "-//W3C//DTD SVG 1.1//EN"
       "http://www.w3.org/Graphics/SVG/1.1/DTD/svg11.dtd">
<svg version="1.1" xmlns="http://www.w3.org/2000/svg" xmlns:xlink="http://www.w3.org/1999/xlink" width="3300" height="2200">
 <!--glyph: "", point size: 100.0, font version: "18.0d10e1", template writer version: "90"-->
 <g id="Notes">
  <rect height="2200" id="artboard" style="fill:white;opacity:1" width="3300" x="0" y="0"/>
  <line style="fill:none;stroke:black;opacity:1;stroke-width:0.5;" x1="263" x2="3036" y1="292" y2="292"/>
  <text style="stroke:none;fill:black;font-family:sans-serif;font-size:13;font-weight:bold;" transform="matrix(1 0 0 1 263 322)">Weight/Scale Variations</text>
  <text style="stroke:none;fill:black;font-family:sans-serif;font-size:13;text-anchor:middle;" transform="matrix(1 0 0 1 559.711 322)">Ultralight</text>
  <text style="stroke:none;fill:black;font-family:sans-serif;font-size:13;text-anchor:middle;" transform="matrix(1 0 0 1 856.422 322)">Thin</text>
  <text style="stroke:none;fill:black;font-family:sans-serif;font-size:13;text-anchor:middle;" transform="matrix(1 0 0 1 1153.13 322)">Light</text>
  <text style="stroke:none;fill:black;font-family:sans-serif;font-size:13;text-anchor:middle;" transform="matrix(1 0 0 1 1449.84 322)">Regular</text>
  <text style="stroke:none;fill:black;font-family:sans-serif;font-size:13;text-anchor:middle;" transform="matrix(1 0 0 1 1746.56 322)">Medium</text>
  <text style="stroke:none;fill:black;font-family:sans-serif;font-size:13;text-anchor:middle;" transform="matrix(1 0 0 1 2043.27 322)">Semibold</text>
  <text style="stroke:none;fill:black;font-family:sans-serif;font-size:13;text-anchor:middle;" transform="matrix(1 0 0 1 2339.98 322)">Bold</text>
  <text style="stroke:none;fill:black;font-family:sans-serif;font-size:13;text-anchor:middle;" transform="matrix(1 0 0 1 2636.69 322)">Heavy</text>
  <text style="stroke:none;fill:black;font-family:sans-serif;font-size:13;text-anchor:middle;" transform="matrix(1 0 0 1 2933.4 322)">Black</text>
  <line style="fill:none;stroke:black;opacity:1;stroke-width:0.5;" x1="263" x2="3036" y1="1903" y2="1903"/>
  <g transform="matrix(1 0 0 1 263 1933)">
   <path d="M9.24805 0.830078C13.5547 0.830078 17.1387-2.74414 17.1387-7.05078C17.1387-11.3574 13.5449-14.9316 9.23828-14.9316C4.94141-14.9316 1.36719-11.3574 1.36719-7.05078C1.36719-2.74414 4.95117 0.830078 9.24805 0.830078ZM9.24805-0.654297C5.70312-0.654297 2.87109-3.49609 2.87109-7.05078C2.87109-10.6055 5.69336-13.4473 9.23828-13.4473C12.793-13.4473 15.6445-10.6055 15.6445-7.05078C15.6445-3.49609 12.8027-0.654297 9.24805-0.654297ZM5.6543-7.05078C5.6543-6.62109 5.95703-6.32812 6.40625-6.32812L8.50586-6.32812L8.50586-4.20898C8.50586-3.76953 8.79883-3.4668 9.22852-3.4668C9.67773-3.4668 9.9707-3.76953 9.9707-4.20898L9.9707-6.32812L12.0898-6.32812C12.5293-6.32812 12.832-6.62109 12.832-7.05078C12.832-7.49023 12.5293-7.79297 12.0898-7.79297L9.9707-7.79297L9.9707-9.90234C9.9707-10.3516 9.67773-10.6543 9.22852-10.6543C8.79883-10.6543 8.50586-10.3516 8.50586-9.90234L8.50586-7.79297L6.40625-7.79297C5.95703-7.79297 5.6543-7.49023 5.6543-7.05078Z"/>
  </g>
  <g transform="matrix(1 0 0 1 281.867 1933)">
   <path d="M11.709 2.91016C17.1582 2.91016 21.6699-1.61133 21.6699-7.05078C21.6699-12.5 17.1484-17.0117 11.6992-17.0117C6.25977-17.0117 1.74805-12.5 1.74805-7.05078C1.74805-1.61133 6.26953 2.91016 11.709 2.91016ZM11.709 1.25C7.09961 1.25 3.41797-2.44141 3.41797-7.05078C3.41797-11.6602 7.08984-15.3516 11.6992-15.3516C16.3086-15.3516 20.0098-11.6602 20.0098-7.05078C20.0098-2.44141 16.3184 1.25 11.709 1.25ZM7.17773-7.05078C7.17773-6.57227 7.50977-6.25 8.00781-6.25L10.8789-6.25L10.8789-3.36914C10.8789-2.88086 11.2109-2.53906 11.6895-2.53906C12.1777-2.53906 12.5195-2.87109 12.5195-3.36914L12.5195-6.25L15.4004-6.25C15.8887-6.25 16.2305-6.57227 16.2305-7.05078C16.2305-7.53906 15.8887-7.88086 15.4004-7.88086L12.5195-7.88086L12.5195-10.752C12.5195-11.25 12.1777-11.5918 11.6895-11.5918C11.2109-11.5918 10.8789-11.25 10.8789-10.752L10.8789-7.88086L8.00781-7.88086C7.50977-7.88086 7.17773-7.53906 7.17773-7.05078Z"/>
  </g>
  <g transform="matrix(1 0 0 1 305.646 1933)">
   <path d="M14.9707 5.66406C21.9336 5.66406 27.6953-0.0976562 27.6953-7.05078C27.6953-14.0137 21.9238-19.7754 14.9609-19.7754C8.00781-19.7754 2.25586-14.0137 2.25586-7.05078C2.25586-0.0976562 8.01758 5.66406 14.9707 5.66406ZM14.9707 3.84766C8.93555 3.84766 4.08203-1.01562 4.08203-7.05078C4.08203-13.0957 8.92578-17.9492 14.9609-17.9492C21.0059-17.9492 25.8691-13.0957 25.8691-7.05078C25.8691-1.01562 21.0156 3.84766 14.9707 3.84766ZM9.19922-7.05078C9.19922-6.5332 9.57031-6.17188 10.1172-6.17188L14.0625-6.17188L14.0625-2.2168C14.0625-1.67969 14.4336-1.29883 14.9512-1.29883C15.4883-1.29883 15.8594-1.66992 15.8594-2.2168L15.8594-6.17188L19.8145-6.17188C20.3516-6.17188 20.7324-6.5332 20.7324-7.05078C20.7324-7.59766 20.3613-7.96875 19.8145-7.96875L15.8594-7.96875L15.8594-11.9141C15.8594-12.4609 15.4883-12.8418 14.9512-12.8418C14.4336-12.8418 14.0625-12.4609 14.0625-11.9141L14.0625-7.96875L10.1172-7.96875C9.57031-7.96875 9.19922-7.59766 9.19922-7.05078Z"/>
  </g>
  <text style="stroke:none;fill:black;font-family:sans-serif;font-size:13;font-weight:bold;" transform="matrix(1 0 0 1 263 1953)">Design Variations</text>
  <text style="stroke:none;fill:black;font-family:sans-serif;font-size:13;" transform="matrix(1 0 0 1 263 1971)">Symbols are supported in up to nine weights and three scales.</text>
  <text style="stroke:none;fill:black;font-family:sans-serif;font-size:13;" transform="matrix(1 0 0 1 263 1989)">For optimal layout with text and other symbols, vertically align</text>
  <text style="stroke:none;fill:black;font-family:sans-serif;font-size:13;" transform="matrix(1 0 0 1 263 2007)">symbols with the adjacent text.</text>
  <line style="fill:none;stroke:#00AEEF;stroke-width:0.5;opacity:1.0;" x1="776" x2="776" y1="1919" y2="1933"/>
  <g transform="matrix(1 0 0 1 776 1933)">
   <path d="M3.31055 0.15625C3.82812 0.15625 4.08203-0.0390625 4.26758-0.585938L5.52734-4.0332L11.2891-4.0332L12.5488-0.585938C12.7344-0.0390625 12.9883 0.15625 13.4961 0.15625C14.0137 0.15625 14.3457-0.15625 14.3457-0.644531C14.3457-0.810547 14.3164-0.966797 14.2383-1.17188L9.6582-13.3691C9.43359-13.9648 9.0332-14.2676 8.4082-14.2676C7.80273-14.2676 7.39258-13.9746 7.17773-13.3789L2.59766-1.16211C2.51953-0.957031 2.49023-0.800781 2.49023-0.634766C2.49023-0.146484 2.80273 0.15625 3.31055 0.15625ZM6.00586-5.51758L8.37891-12.0898L8.42773-12.0898L10.8008-5.51758Z"/>
  </g>
  <line style="fill:none;stroke:#00AEEF;stroke-width:0.5;opacity:1.0;" x1="793.197" x2="793.197" y1="1919" y2="1933"/>
  <text style="stroke:none;fill:black;font-family:sans-serif;font-size:13;font-weight:bold;" transform="matrix(1 0 0 1 776 1953)">Margins</text>
  <text style="stroke:none;fill:black;font-family:sans-serif;font-size:13;" transform="matrix(1 0 0 1 776 1971)">Leading and trailing margins on the left and right side of each symbol</text>
  <text style="stroke:none;fill:black;font-family:sans-serif;font-size:13;" transform="matrix(1 0 0 1 776 1989)">can be adjusted by modifying the x-location of the margin guidelines.</text>
  <text style="stroke:none;fill:black;font-family:sans-serif;font-size:13;" transform="matrix(1 0 0 1 776 2007)">Modifications are automatically applied proportionally to all</text>
  <text style="stroke:none;fill:black;font-family:sans-serif;font-size:13;" transform="matrix(1 0 0 1 776 2025)">scales and weights.</text>
  <g transform="matrix(1 0 0 1 1289 1933)">
   <path d="M2.8418 1.86523L4.54102 3.57422C5.40039 4.44336 6.38672 4.38477 7.31445 3.35938L18.0078-8.42773L17.041-9.4043L6.42578 2.27539C6.07422 2.67578 5.74219 2.77344 5.27344 2.30469L4.10156 1.14258C3.63281 0.683594 3.74023 0.341797 4.14062-0.0195312L15.6152-10.8203L14.6387-11.7871L3.04688-0.898438C2.06055 0.0195312 1.98242 0.996094 2.8418 1.86523ZM9.25781-16.3281C8.83789-15.918 8.80859-15.3418 9.04297-14.9512C9.27734-14.5898 9.73633-14.3555 10.3809-14.5215C11.8457-14.8633 13.3691-14.9219 14.7949-13.9844L14.209-12.5293C13.8672-11.6992 14.043-11.1133 14.5801-10.5664L16.875-8.25195C17.3633-7.76367 17.7734-7.74414 18.3398-7.8418L19.4043-8.03711L20.0684-7.36328L20.0293-6.80664C19.9902-6.30859 20.1172-5.92773 20.6055-5.44922L21.3672-4.70703C21.8457-4.22852 22.4609-4.19922 22.9297-4.66797L25.8398-7.58789C26.3086-8.05664 26.2891-8.65234 25.8105-9.13086L25.0391-9.89258C24.5605-10.3711 24.1895-10.5273 23.7109-10.4883L23.1348-10.4395L22.4902-11.0742L22.7344-12.1973C22.8613-12.7637 22.7051-13.2031 22.1191-13.7891L19.9219-15.9766C16.582-19.2969 12.1484-19.2188 9.25781-16.3281ZM10.752-15.957C13.1836-17.7344 16.4746-17.4316 18.7012-15.2051L21.1328-12.793C21.3672-12.5586 21.4062-12.373 21.3379-12.0312L21.0156-10.5469L22.5195-9.0625L23.5059-9.12109C23.7598-9.13086 23.8379-9.11133 24.0332-8.91602L24.6094-8.33984L22.168-5.89844L21.5918-6.47461C21.3965-6.66992 21.3672-6.74805 21.377-7.01172L21.4453-7.98828L19.9512-9.47266L18.4277-9.21875C18.1055-9.15039 17.959-9.17969 17.7148-9.41406L15.7129-11.416C15.459-11.6504 15.4297-11.8164 15.5859-12.1875L16.4648-14.2773C14.9023-15.7324 12.8711-16.3574 10.8398-15.7617C10.6836-15.7227 10.625-15.8496 10.752-15.957Z"/>
  </g>
  <text style="stroke:none;fill:black;font-family:sans-serif;font-size:13;font-weight:bold;" transform="matrix(1 0 0 1 1289 1953)">Exporting</text>
  <text style="stroke:none;fill:black;font-family:sans-serif;font-size:13;" transform="matrix(1 0 0 1 1289 1971)">Symbols should be outlined when exporting to ensure the</text>
  <text style="stroke:none;fill:black;font-family:sans-serif;font-size:13;" transform="matrix(1 0 0 1 1289 1989)">design is preserved when submitting to Xcode.</text>
  <text id="template-version" style="stroke:none;fill:black;font-family:sans-serif;font-size:13;text-anchor:end;" transform="matrix(1 0 0 1 3036 1933)">Template v.2.0</text>
  <text style="stroke:none;fill:black;font-family:sans-serif;font-size:13;text-anchor:end;" transform="matrix(1 0 0 1 3036 1951)">Requires Xcode 12 or greater</text>
  <text id="descriptive-name" style="stroke:none;fill:black;font-family:sans-serif;font-size:13;text-anchor:end;" transform="matrix(1 0 0 1 3036 1969)">Generated from custom.location</text>
  <text style="stroke:none;fill:black;font-family:sans-serif;font-size:13;text-anchor:end;" transform="matrix(1 0 0 1 3036 1987)">Typeset at 100 points</text>
  <text style="stroke:none;fill:black;font-family:sans-serif;font-size:13;" transform="matrix(1 0 0 1 263 726)">Small</text>
  <text style="stroke:none;fill:black;font-family:sans-serif;font-size:13;" transform="matrix(1 0 0 1 263 1156)">Medium</text>
  <text style="stroke:none;fill:black;font-family:sans-serif;font-size:13;" transform="matrix(1 0 0 1 263 1586)">Large</text>
 </g>
 <g id="Guides">
  <g id="H-reference" style="fill:#27AAE1;stroke:none;" transform="matrix(1 0 0 1 339 696)">
   <path d="M0.993654 0L3.63775 0L29.3281-67.1323L30.0303-67.1323L30.0303-70.459L28.1226-70.459ZM11.6885-24.4799L46.9815-24.4799L46.2315-26.7285L12.4385-26.7285ZM55.1196 0L57.7637 0L30.6382-70.459L29.4326-70.459L29.4326-67.1323Z"/>
  </g>
  <line id="Baseline-S" style="fill:none;stroke:#27AAE1;opacity:1;stroke-width:0.5;" x1="263" x2="3036" y1="696" y2="696"/>
  <line id="Capline-S" style="fill:none;stroke:#27AAE1;opacity:1;stroke-width:0.5;" x1="263" x2="3036" y1="625.541" y2="625.541"/>
  <g id="H-reference" style="fill:#27AAE1;stroke:none;" transform="matrix(1 0 0 1 339 1126)">
   <path d="M0.993654 0L3.63775 0L29.3281-67.1323L30.0303-67.1323L30.0303-70.459L28.1226-70.459ZM11.6885-24.4799L46.9815-24.4799L46.2315-26.7285L12.4385-26.7285ZM55.1196 0L57.7637 0L30.6382-70.459L29.4326-70.459L29.4326-67.1323Z"/>
  </g>
  <line id="Baseline-M" style="fill:none;stroke:#27AAE1;opacity:1;stroke-width:0.5;" x1="263" x2="3036" y1="1126" y2="1126"/>
  <line id="Capline-M" style="fill:none;stroke:#27AAE1;opacity:1;stroke-width:0.5;" x1="263" x2="3036" y1="1055.54" y2="1055.54"/>
  <g id="H-reference" style="fill:#27AAE1;stroke:none;" transform="matrix(1 0 0 1 339 1556)">
   <path d="M0.993654 0L3.63775 0L29.3281-67.1323L30.0303-67.1323L30.0303-70.459L28.1226-70.459ZM11.6885-24.4799L46.9815-24.4799L46.2315-26.7285L12.4385-26.7285ZM55.1196 0L57.7637 0L30.6382-70.459L29.4326-70.459L29.4326-67.1323Z"/>
  </g>
  <line id="Baseline-L" style="fill:none;stroke:#27AAE1;opacity:1;stroke-width:0.5;" x1="263" x2="3036" y1="1556" y2="1556"/>
  <line id="Capline-L" style="fill:none;stroke:#27AAE1;opacity:1;stroke-width:0.5;" x1="263" x2="3036" y1="1485.54" y2="1485.54"/>
  <line id="left-margin" style="fill:none;stroke:#00AEEF;stroke-width:0.5;opacity:1.0;" x1="1394.36" x2="1394.36" y1="1030.78" y2="1150.12"/>
  <line id="right-margin" style="fill:none;stroke:#00AEEF;stroke-width:0.5;opacity:1.0;" x1="1505.33" x2="1505.33" y1="1030.78" y2="1150.12"/>
 </g>
 <g id="Symbols">
  <g id="Black-L" transform="matrix(1 0 0 1 2856.11 1556)">
   <path d="M15.2142-57.5737C0.842291-51.068 4.13671-30.7258 19.5375-30.705L63.7082-30.6622C64.1573-30.6622 63.9116-31.0623 63.9116-30.4589L63.9544 13.6435C63.9753 29.1359 84.3625 32.2506 90.9481 17.7228L136.769-82.9932C144.008-98.9223 132.041-110.65 116.099-103.418ZM46.6638-49.8411C46.2633-49.8411 46.1841-50.0675 46.603-50.266L113.039-80.2761C113.466-80.5002 113.869-80.4113 113.507-79.7284L83.4541-13.4535C83.3129-13.0919 83.0489-13.1527 83.0489-13.5143L83.2502-39.7744C83.3086-47.4801 80.6915-50.1008 72.9774-50.0424Z"/>
  </g>
  <g id="Heavy-L" transform="matrix(1 0 0 1 2560.75 1556)">
   <path d="M14.5661-55.5317C1.64192-49.6629 4.71016-31.5213 18.6014-31.4911L63.3733-31.4251C63.8874-31.4251 63.747-31.6691 63.747-31.0515L63.813 13.602C63.8432 27.6532 82.0619 30.4182 88.0347 17.303L134.127-83.485C140.641-97.7365 129.849-108.175 115.607-101.689ZM40.9771-48.2794C40.6096-48.2794 40.5349-48.5186 40.9213-48.6939L113.486-81.6404C113.912-81.8683 114.291-81.7485 113.943-81.1086L80.9309-8.70428C80.7946-8.35696 80.541-8.41279 80.541-8.7601L80.7567-39.5764C80.8012-46.0955 78.3739-48.5397 71.8155-48.4951Z"/>
  </g>
  <g id="Bold-L" transform="matrix(1 0 0 1 2265.56 1556)">
   <path d="M13.7711-52.9706C2.66718-47.9081 5.42889-32.5092 17.3932-32.4711L63.1937-32.382C63.7698-32.382 63.7526-32.4487 63.7526-31.8231L63.8418 13.7974C63.8798 26.0062 79.3943 28.3184 84.5692 17.0296L131.171-84.2082C136.786-96.3849 127.461-105.218 115.339-99.6689ZM34.1737-46.3549C33.8298-46.3549 33.7627-46.6243 34.1181-46.7764L114.297-83.4171C114.745-83.66 115.115-83.4869 114.776-82.871L78.0463-2.85257C77.9102-2.51323 77.6496-2.56887 77.6496-2.90822L77.8732-39.2604C77.9023-44.4011 75.7355-46.6077 70.502-46.5785Z"/>
  </g>
  <g id="Semibold-L" transform="matrix(1 0 0 1 1969.9 1556)">
   <path d="M13.2231-51.2051C3.374-46.6984 5.92437-33.1902 16.5603-33.1468L63.0698-33.0416C63.6887-33.0416 63.7564-32.9862 63.7564-32.3551L63.8617 13.932C63.905 24.8707 77.5553 26.8709 82.18 16.8412L129.133-84.7067C134.129-95.4531 125.815-103.179 115.155-98.2762ZM29.4835-45.0281C29.1559-45.0281 29.094-45.3184 29.428-45.4545L114.856-84.6419C115.32-84.8952 115.684-84.6854 115.35-84.086L76.0576 1.18156C75.9217 1.51541 75.6562 1.45989 75.6562 1.12604L75.8853-39.0424C75.9038-43.2331 73.9166-45.2758 69.5965-45.2572Z"/>
  </g>
  <g id="Medium-L" transform="matrix(1 0 0 1 1673.98 1556)">
   <path d="M12.8075-49.8663C3.90993-45.7812 6.30007-33.7066 15.9287-33.6591L62.9759-33.5418C63.6272-33.5418 63.7593-33.3937 63.7593-32.7584L63.8767 14.0342C63.9241 24.0098 76.1608 25.7733 80.3685 16.6983L127.588-85.0848C132.113-94.7466 124.567-101.633 115.015-97.2201ZM25.9272-44.0221C25.6119-44.0221 25.554-44.3282 25.8717-44.4522L115.28-85.5706C115.755-85.8318 116.115-85.5941 115.786-85.0072L74.5498 4.24041C74.414 4.57009 74.1448 4.51466 74.1448 4.18498L74.378-38.8772C74.3885-42.3474 72.5374-44.2659 68.9099-44.2554Z"/>
  </g>
  <g id="Regular-L" transform="matrix(1 0 0 1 1378.31 1556)">
   <path d="M12.2655-48.1202C4.60897-44.5847 6.79011-34.3802 15.105-34.3274L62.8534-34.1942C63.547-34.1942 63.7631-33.9253 63.7631-33.2845L63.8963 14.1674C63.9491 22.8869 74.342 24.3417 78.0056 16.5119L125.572-85.5778C129.485-93.825 122.939-99.617 114.833-95.8427ZM21.2885-42.7099C20.9893-42.7099 20.9366-43.0366 21.2332-43.1448L115.833-86.782C116.323-87.0534 116.678-86.7794 116.353-86.2089L72.583 8.23022C72.4473 8.55446 72.1733 8.49915 72.1733 8.1749L72.412-38.6617C72.412-41.1921 70.7385-42.9486 68.0143-42.9486Z"/>
  </g>
  <g id="Light-L" transform="matrix(1 0 0 1 1081.72 1556)">
   <path d="M11.7665-46.1475C5.54135-43.28 7.34078-35.0794 13.957-35.0457L64.2438-34.9316C64.8611-34.9316 65.1153-34.6436 65.1153-34.0601L65.2295 15.892C65.2631 22.9702 73.6712 23.986 76.5333 17.9121L125.57-86.8114C128.852-93.6463 123.394-98.2741 116.853-95.2251ZM18.1366-41.4433C17.742-41.4433 17.7084-41.8846 18.0431-42.0117L118.044-88.5691C118.706-88.9168 119.194-88.5092 118.813-87.7669L72.1412 12.0733C71.9674 12.4548 71.5598 12.3613 71.5598 11.9798L71.7412-37.9867C71.7412-40.1546 70.4112-41.6248 67.9161-41.6248Z"/>
  </g>
  <g id="Thin-L" transform="matrix(1 0 0 1 785.173 1556)">
   <path d="M11.1065-43.5384C6.77449-41.5544 8.06909-36.0041 12.4388-35.9957L66.0827-35.9068C66.5991-35.9068 66.9038-35.5935 66.9038-35.0857L66.9927 18.173C67.0011 23.0803 72.7841 23.5156 74.586 19.7639L125.566-88.443C128.016-93.4099 123.996-96.498 119.525-94.4082ZM13.968-39.7682C13.4472-39.7682 13.4388-40.3609 13.824-40.5132L120.968-90.9325C121.858-91.3813 122.522-90.797 122.065-89.8275L71.557 17.1561C71.3327 17.6133 70.7484 17.4694 70.7484 17.0122L70.854-37.0941C70.854-38.7824 69.9785-39.8739 67.7862-39.8739Z"/>
  </g>
  <g id="Ultralight-L" transform="matrix(1 0 0 1 488.544 1556)">
   <path d="M10.7685-42.202C7.4061-40.6705 8.44213-36.4778 11.6612-36.4823L67.0246-36.4063C67.4893-36.4063 67.8198-36.0801 67.8198-35.6111L67.8958 19.3413C67.8913 23.1367 72.3297 23.2747 73.5886 20.7125L125.564-89.2786C127.587-93.2889 124.305-95.5882 120.893-93.9898ZM11.8328-38.9102C11.2474-38.9102 11.2519-39.5805 11.663-39.7457L122.466-92.1431C123.472-92.6436 124.227-91.9688 123.731-90.8829L71.2577 19.7595C71.0076 20.2555 70.3327 20.0857 70.3327 19.5897L70.3995-36.6369C70.3995-38.0795 69.7568-38.9771 67.7197-38.9771Z"/>
  </g>
  <g id="Black-M" transform="matrix(1 0 0 1 2872.38 1126)">
   <path d="M12.2765-54.0284C0.0916568-48.5311 2.78664-31.1515 15.7855-31.146L49.8336-31.1353C50.1154-31.1353 49.8396-31.5768 49.8396-31.1294L49.8504 2.90378C49.8558 15.9226 67.2455 18.5767 72.7657 6.34537L108.231-71.9786C114.377-85.57 104.243-95.6068 90.6439-89.4597ZM40.6126-47.7203C40.261-47.7203 40.1984-47.9003 40.5561-48.0766L87.4905-69.1988C87.8462-69.3794 88.1973-69.319 87.897-68.7297L66.7642-21.9198C66.6453-21.6196 66.4137-21.6761 66.4137-21.9763L66.5496-38.8294C66.6067-45.77 64.4625-47.9133 57.5239-47.8563Z"/>
  </g>
  <g id="Heavy-M" transform="matrix(1 0 0 1 2576.97 1126)">
   <path d="M11.689-52.2141C0.787336-47.2779 3.29644-31.8646 14.9763-31.8482L49.378-31.8131C49.7303-31.8131 49.554-32.1038 49.554-31.6372L49.5891 2.70404C49.6055 14.4654 65.0584 16.8182 70.0535 5.80572L105.649-72.3456C111.144-84.4273 102.058-93.3109 89.9762-87.8269ZM35.3443-46.3106C35.0338-46.3106 34.9738-46.4924 35.2961-46.6443L87.7242-70.3676C88.0625-70.5449 88.3775-70.4666 88.0965-69.9352L64.3382-17.6316C64.2277-17.3507 64.0187-17.3988 64.0187-17.6798L64.1739-38.6982C64.2174-44.5122 62.2272-46.5094 56.3971-46.4658Z"/>
  </g>
  <g id="Bold-M" transform="matrix(1 0 0 1 2281.72 1126)">
   <path d="M11.0317-50.1845C1.56555-45.8761 3.86671-32.6624 14.0711-32.6337L48.8682-32.5713C49.2995-32.5713 49.2345-32.6934 49.2345-32.2051L49.2969 2.48061C49.3255 12.8353 62.6118 14.851 67.0195 5.20205L102.76-72.7561C107.528-83.1489 99.6147-90.7427 89.2292-86.0004ZM29.4509-44.7336C29.1864-44.7336 29.1292-44.9175 29.4121-45.0421L87.9856-71.675C88.3044-71.8487 88.5792-71.7504 88.3198-71.2837L61.6245-12.8347C61.5234-12.5753 61.3395-12.6141 61.3395-12.8735L61.5162-38.5514C61.5448-43.1052 59.7265-44.9388 55.1367-44.9103Z"/>
  </g>
  <g id="Semibold-M" transform="matrix(1 0 0 1 1986.02 1126)">
   <path d="M10.5786-48.7854C2.10205-44.9096 4.25986-33.2123 13.447-33.1752L48.5168-33.094C49.0026-33.094 49.0142-33.0998 49.0142-32.5967L49.0955 2.32657C49.1325 11.7116 60.9251 13.4949 64.9278 4.78589L100.768-73.0391C105.034-82.2677 97.9301-88.9721 88.7142-84.7413ZM25.388-43.6464C25.1552-43.6464 25.1001-43.8317 25.3557-43.9375L88.1659-72.5763C88.4712-72.7475 88.7182-72.6354 88.4737-72.2133L59.7537-9.52769C59.659-9.28315 59.4925-9.31551 59.4925-9.56005L59.6841-38.4501C59.7022-42.1352 58.0026-43.8561 54.2678-43.838Z"/>
  </g>
  <g id="Medium-M" transform="matrix(1 0 0 1 1690.07 1126)">
   <path d="M10.2351-47.7245C2.50885-44.1768 4.55796-33.6293 12.9738-33.5858L48.2504-33.4904C48.7774-33.4904 48.8472-33.4079 48.8472-32.8936L48.9427 2.20978C48.9861 10.8595 59.6462 12.4666 63.3419 4.47033L99.2577-73.2537C103.144-81.5994 96.6527-87.6296 88.3237-83.7865ZM22.3074-42.822C22.0986-42.822 22.045-43.0085 22.2799-43.1L88.3025-73.2598C88.5977-73.429 88.8236-73.3065 88.5903-72.9182L58.3351-7.02019C58.2454-6.78692 58.092-6.81439 58.092-7.04767L58.2949-38.3734C58.3051-41.3997 56.6955-43.0351 53.6089-43.0249Z"/>
  </g>
  <g id="Regular-M" transform="matrix(1 0 0 1 1394.36 1126)">
   <path d="M9.78693-46.3407C3.03945-43.221 4.94678-34.1732 12.3566-34.1214L47.9028-34.0074C48.4837-34.0074 48.6294-33.8099 48.6294-33.2808L48.7435 2.05744C48.7952 9.7481 57.9781 11.1253 61.2733 4.05874L97.2878-73.5336C100.678-80.7278 94.9866-85.8786 87.8144-82.5412ZM18.2892-41.7468C18.1118-41.7468 18.0601-41.9346 18.2681-42.0076L88.4807-74.1512C88.7626-74.3179 88.961-74.1818 88.7426-73.8376L56.4848-3.74954C56.4015-3.53096 56.2653-3.55206 56.2653-3.77064L56.4829-38.2733C56.4829-40.4403 54.9905-41.9643 52.7495-41.9643Z"/>
  </g>
  <g id="Light-M" transform="matrix(1 0 0 1 1097.75 1126)">
   <path d="M9.33956-44.5721C3.87537-42.0512 5.44049-34.8001 11.3274-34.7654L49.1494-34.6684C49.6619-34.6684 49.8417-34.4538 49.8417-33.9761L49.9387 3.60366C49.9733 9.82278 57.3767 10.8065 59.9532 5.31407L97.2853-74.6396C100.111-80.5676 95.3948-84.6746 89.6257-81.9874ZM15.4634-40.6112C15.2004-40.6112 15.1658-40.9017 15.408-40.9917L90.4631-75.7533C90.899-75.9886 91.2172-75.7326 90.9473-75.2345L56.0888-0.303997C55.9712-0.0340892 55.7153-0.0894134 55.7153-0.359322L55.8814-37.6682C55.8814-39.5101 54.6972-40.7774 52.6615-40.7774Z"/>
  </g>
  <g id="Thin-M" transform="matrix(1 0 0 1 801.188 1126)">
   <path d="M8.74787-42.2329C4.98095-40.5041 6.09346-35.6291 9.96625-35.6171L50.7981-35.5428C51.2201-35.5428 51.4452-35.3055 51.4452-34.8957L51.5195 5.64866C51.5315 9.92155 56.5813 10.3847 58.2074 6.97435L97.282-76.1023C99.3607-80.3557 95.9346-83.0822 92.0213-81.255ZM11.726-39.1093C11.3499-39.1093 11.3379-39.5357 11.6254-39.6482L93.0849-77.8723C93.7245-78.1981 94.2011-77.7838 93.8633-77.0819L55.565 4.25301C55.4021 4.5908 54.9878 4.49022 54.9878 4.15243L55.086-36.8678C55.086-38.2799 54.3091-39.2077 52.545-39.2077Z"/>
  </g>
  <g id="Ultralight-M" transform="matrix(1 0 0 1 504.55 1126)">
   <path d="M8.44481-41.0348C5.54722-39.7117 6.4279-36.0538 9.26907-36.0534L51.6426-35.9906C52.0182-35.9906 52.2664-35.7418 52.2664-35.3667L52.3292 6.6961C52.3296 9.97214 56.174 10.1687 57.3131 7.82474L97.2803-76.8516C98.9765-80.2472 96.211-82.2666 93.2482-80.8799ZM9.81169-38.3401C9.37766-38.3401 9.37725-38.836 9.68793-38.9601L94.4278-78.9577C95.1717-79.3298 95.7294-78.8343 95.3569-78.0282L55.2967 6.58709C55.1106 6.95965 54.6151 6.83588 54.6151 6.46332L54.6786-36.4579C54.6786-37.6497 54.1104-38.4037 52.4854-38.4037Z"/>
  </g>
  <g id="Black-S" transform="matrix(1 0 0 1 2885.19 696)">
   <path d="M9.773-50.4089C-0.0902286-45.9656 2.05821-31.8542 12.5563-31.8542L39.2652-31.8542C39.4606-31.8542 39.2164-32.2449 39.2164-31.9031L39.2164-5.19406C39.2164 5.30398 53.3277 7.45242 57.7711-2.41086L85.6031-63.9831C90.5836-75.0183 82.3805-83.1726 71.3453-78.1921ZM33.2594-45.3796C32.9664-45.3796 32.9176-45.5261 33.2106-45.6726L68.6109-61.5906C68.9039-61.7371 69.1969-61.6882 68.9527-61.1999L53.0348-25.8972C52.9371-25.6531 52.7418-25.7019 52.7418-25.946L52.8395-38.0554C52.8883-43.8171 51.1793-45.5261 45.4176-45.4773Z"/>
  </g>
  <g id="Heavy-S" transform="matrix(1 0 0 1 2589.58 696)">
   <path d="M9.32768-49.0832C0.39793-45.0433 2.43112-32.384 11.9957-32.3724L38.7162-32.3494C38.9807-32.3494 38.8172-32.6133 38.8172-32.2485L38.8402-5.56249C38.8517 4.04817 51.534 5.98917 55.6201-3.03283L83.3945-64.1556C87.891-74.0614 80.46-81.3629 70.5427-76.8664ZM29.1147-44.319C28.8678-44.319 28.819-44.4539 29.0774-44.5774L68.5574-62.3854C68.8158-62.5204 69.0627-62.4715 68.8416-62.0524L51.0106-22.67C50.9245-22.4489 50.7637-22.4862 50.7637-22.7073L50.8845-38.0205C50.9218-42.8602 49.3049-44.477 44.4652-44.4397Z"/>
  </g>
  <g id="Bold-S" transform="matrix(1 0 0 1 2294.1 696)">
   <path d="M8.8296-47.6005C0.943913-44.0117 2.84821-32.9765 11.3688-32.9521L38.1021-32.9033C38.444-32.9033 38.3707-33.0254 38.3707-32.6348L38.4195-5.97457C38.4439 2.64359 49.5279 4.35258 53.2144-3.72847L80.9244-64.3486C84.8795-72.9912 78.3121-79.3388 69.6451-75.3837ZM24.4791-43.1328C24.2838-43.1328 24.235-43.2548 24.4547-43.3525L68.4976-63.2744C68.7174-63.3965 68.9127-63.3476 68.7174-63.0058L48.7467-19.0605C48.6734-18.8652 48.5514-18.8896 48.5514-19.0849L48.6979-37.9814C48.7223-41.79 47.2086-43.3037 43.4-43.2793Z"/>
  </g>
  <g id="Semibold-S" transform="matrix(1 0 0 1 1998.24 696)">
   <path d="M8.48621-46.5783C1.32034-43.3005 3.13577-33.385 10.9365-33.3517L37.6787-33.2851C38.0739-33.2851 38.0628-33.3095 38.0628-32.9011L38.1294-6.25867C38.1627 1.67521 48.1447 3.22423 51.5558-4.20809L79.2213-64.4816C82.8031-72.2533 76.8312-77.9433 69.0262-74.3615ZM21.2831-42.3149C21.1233-42.3149 21.0745-42.4281 21.2676-42.508L68.4564-63.8873C68.6494-64.0005 68.8092-63.9516 68.6317-63.6632L47.1858-16.572C47.1214-16.3944 47.026-16.4099 47.026-16.5875L47.1903-37.9545C47.2058-41.0521 45.7632-42.4947 42.6655-42.4792Z"/>
  </g>
  <g id="Medium-S" transform="matrix(1 0 0 1 1702.18 696)">
   <path d="M8.22583-45.8032C1.60576-42.7612 3.35381-33.6948 10.6087-33.6547L37.3577-33.5747C37.7933-33.5747 37.8294-33.5249 37.8294-33.103L37.9095-6.47409C37.9495 0.940942 47.0959 2.36868 50.2981-4.57175L77.93-64.5825C81.2288-71.6938 75.7083-76.8852 68.5569-73.5864ZM18.8597-41.6948C18.7269-41.6948 18.6781-41.8012 18.8509-41.8677L68.4251-64.3521C68.598-64.4585 68.7307-64.4097 68.5667-64.1616L46.0022-14.685C45.9446-14.521 45.8695-14.5298 45.8695-14.6938L46.0472-37.9341C46.056-40.4926 44.6673-41.8813 42.1087-41.8725Z"/>
  </g>
  <g id="Regular-S" transform="matrix(1 0 0 1 1406.31 696)">
   <path d="M7.8862-44.7921C1.97805-42.0578 3.6382-34.0988 10.1812-34.0499L36.939-33.9523C37.4273-33.9523 37.5249-33.8058 37.5249-33.3664L37.6226-6.75508C37.6714-0.0167987 45.728 1.25273 48.6577-5.04609L76.2456-64.714C79.1753-70.964 74.2437-75.505 67.9448-72.5753ZM15.6988-40.8859C15.6011-40.8859 15.5523-40.9835 15.6988-41.0324L68.3843-64.9582C68.5308-65.0558 68.6284-65.007 68.482-64.8117L44.4585-12.2238C44.4097-12.0773 44.3609-12.0773 44.3609-12.2238L44.5562-37.9074C44.5562-39.7628 43.2378-41.0812 41.3823-41.0812Z"/>
  </g>
  <g id="Light-S" transform="matrix(1 0 0 1 1109.69 696)">
   <path d="M7.49045-43.2276C2.71753-41.023 4.07495-34.6534 9.27078-34.6196L38.0417-34.5371C38.4695-34.5371 38.5974-34.3755 38.5974-33.9815L38.6799-5.38727C38.7136 0.0492659 45.196 0.970653 47.49-3.9356L76.2434-65.6924C78.6736-70.8223 74.6047-74.44 69.5471-72.0855ZM13.199-39.8814C13.0257-39.8814 12.992-40.0698 13.1688-40.1338L70.1379-66.3755C70.4206-66.5337 70.6242-66.3789 70.4324-66.0474L44.1081-9.17587C44.0291-8.98396 43.8743-9.01424 43.8743-9.20614L44.0242-37.3721C44.0242-38.94 42.9783-40.0313 41.3044-40.0313Z"/>
  </g>
  <g id="Thin-S" transform="matrix(1 0 0 1 813.108 696)">
   <path d="M6.96703-41.1583C3.69554-39.6544 4.65257-35.3868 8.06667-35.3731L39.5002-35.3106C39.8479-35.3106 40.0158-35.1289 40.0158-34.795L40.0784-3.57823C40.092 0.136642 44.4924 0.597581 45.9456-2.46689L76.2404-66.9864C78.01-70.6349 75.0823-73.0313 71.6662-71.4376ZM9.89287-38.5528C9.61942-38.5528 9.60576-38.8614 9.82256-38.9454L72.4572-68.25C72.9201-68.4883 73.2638-68.1934 73.0119-67.6817L43.6448-5.14467C43.5257-4.89271 43.2308-4.96303 43.2308-5.21498L43.3205-36.6642C43.3205-37.8517 42.635-38.6427 41.2014-38.6427Z"/>
  </g>
  <g id="Ultralight-S" transform="matrix(1 0 0 1 516.462 696)">
   <path d="M6.69894-40.0984C4.19647-38.9534 4.94843-35.7624 7.44993-35.759L40.2472-35.7067C40.5539-35.7067 40.7423-35.5148 40.7423-35.2116L40.7946-2.65165C40.798 0.181395 44.132 0.406495 45.1545-1.71463L76.2389-67.6491C77.6701-70.5388 75.3268-72.3098 72.7516-71.1057ZM8.19948-37.8723C7.87477-37.8723 7.87136-38.2424 8.10866-38.3366L73.6451-69.2101C74.2003-69.4894 74.6158-69.1227 74.3331-68.5187L43.4074-3.07991C43.2678-2.7972 42.9011-2.88802 42.9011-3.17073L42.9601-36.3015C42.9601-37.2942 42.4592-37.9314 41.1486-37.9314Z"/>
  </g>
 </g>
</svg>
